<svg width="256" height="256" viewBox="0 0 256 256" fill="none" xmlns="http://www.w3.org/2000/svg">
  <!-- Gradient Background -->
  <rect width="256" height="256" rx="64" fill="url(#grad_bg)" />
  
  <!-- Layers Icon Data (Approximating lucide 'Layers') -->
  <g transform="translate(48, 48) scale(6.6)" stroke="white" stroke-width="2.5" stroke-linecap="round" stroke-linejoin="round" fill="none">
    <path d="M12 2L2 7l10 5 10-5-10-5z" />
    <path d="M2 12l10 5 10-5" />
    <path d="M2 17l10 5 10-5" />
  </g>
  
  <!-- Sparkles Icon Data -->
  <g transform="translate(140, 48) scale(3.5)" stroke="rgba(255, 255, 255, 0.85)" stroke-width="2" stroke-linecap="round" stroke-linejoin="round" fill="none">
    <path d="M9.937 15.5A2 2 0 0 0 8.5 14.063l-6.135-1.582a.5.5 0 0 1 0-.962L8.5 9.936A2 2 0 0 0 9.937 8.5l1.582-6.135a.5.5 0 0 1 .963 0L14.063 8.5A2 2 0 0 0 15.5 9.937l6.135 1.581a.5.5 0 0 1 0 .964L15.5 14.063a2 2 0 0 0-1.437 1.437l-1.582 6.135a.5.5 0 0 1-.963 0z" />
  </g>

  <!-- Gradients -->
  <defs>
    <linearGradient id="grad_bg" x1="0" y1="0" x2="256" y2="256" gradientUnits="userSpaceOnUse">
      <stop stop-color="#2563EB" />
      <stop offset="1" stop-color="#60A5FA" />
    </linearGradient>
  </defs>
</svg>
